<?xml version="1.0" standalone="no"?>
<!DOCTYPE svg PUBLIC "-//W3C//DTD SVG 20010904//EN"
 "http://www.w3.org/TR/2001/REC-SVG-20010904/DTD/svg10.dtd">
<svg version="1.0" xmlns="http://www.w3.org/2000/svg"
 width="128.000000pt" height="128.000000pt" viewBox="0 0 128.000000 128.000000"
 preserveAspectRatio="xMidYMid meet">

<g transform="translate(0.000000,128.000000) scale(0.100000,-0.100000)"
fill="#000000" stroke="none">
<path d="M467 1064 c-92 -46 -170 -90 -172 -97 -2 -6 -5 -164 -8 -351 l-4
-338 123 -60 123 -61 111 0 111 0 123 61 123 60 -4 338 c-3 187 -6 345 -8 351
-3 10 -336 185 -347 182 -2 0 -79 -38 -171 -85z m343 -9 c94 -47 170 -87 170
-90 0 -3 -73 31 -161 76 l-161 80 4 -320 4 -321 -26 0 -26 0 4 321 4 320 -161
-80 c-88 -45 -161 -79 -161 -76 0 4 325 172 338 174 1 1 79 -37 172 -84z
m-456 -421 c1 -168 -2 -310 -5 -316 -17 -28 -22 39 -24 306 -1 261 5 340 22
322 3 -3 6 -143 7 -312z m600 -6 c-1 -271 -6 -338 -23 -310 -3 6 -5 138 -4
294 2 364 1 347 16 327 9 -12 12 -93 11 -311z m-464 176 c-6 -65 -13 -171 -16
-234 -3 -63 -7 -135 -10 -159 l-6 -43 -24 23 c-24 22 -24 23 -24 238 l0 215
42 43 c23 23 43 41 45 39 2 -1 -1 -56 -7 -122z m380 -174 c0 -215 0 -217 -24
-239 l-23 -22 -7 32 c-3 17 -6 64 -6 104 0 40 -4 117 -9 171 -5 55 -12 135
-16 179 l-6 80 45 -45 46 -44 0 -216z m-205 -230 c0 -18 -6 -26 -23 -28 -13
-2 -25 3 -28 12 -10 26 4 48 28 44 17 -2 23 -10 23 -28z m-11 -56 c28 -11 15
-134 -14 -134 -12 0 -19 11 -24 38 -9 58 -7 90 7 95 6 3 13 6 14 6 1 1 8 -2
17 -5z m-240 -110 l115 -57 111 0 111 0 116 57 c64 31 117 55 119 53 2 -2 -50
-30 -116 -62 l-120 -58 -110 0 -111 0 -122 61 c-67 33 -119 61 -115 61 3 1 58
-24 122 -55z"/>
<path d="M624 409 c-10 -17 13 -36 27 -22 12 12 4 33 -11 33 -5 0 -12 -5 -16
-11z"/>
</g>
</svg>
